<?xml version="1.0" encoding="utf-8"?>
<!-- Generator: Adobe Illustrator 28.3.0, SVG Export Plug-In . SVG Version: 6.00 Build 0)  -->
<svg version="1.1" xmlns="http://www.w3.org/2000/svg" xmlns:xlink="http://www.w3.org/1999/xlink" x="0px" y="0px"
	 viewBox="0 0 281.23 249.81" style="enable-background:new 0 0 281.23 249.81;" xml:space="preserve">
<style type="text/css">
	.st0{fill:#FFFFFF;}
	.st1{fill:none;}
	.st2{font-family:'Arial-Black';}
	.st3{font-size:54px;}
</style>
<g id="Eye">
	<path class="st0" d="M215.06,52.12C149.81-30.89,53.28,65.25,14.29,17.76C53.45,99.04,163.78,4,215.06,52.12z"/>
	<path class="st0" d="M271.9,157.78c-65.25-83.01-161.78,13.13-200.78-34.36C110.29,204.7,220.62,109.66,271.9,157.78z"/>
	<path class="st0" d="M139.58,32.56c-20.25,0-38.05,9.82-48.28,24.64c2.51-1.61,5.49-2.55,8.69-2.55c8.92,0,16.15,7.23,16.15,16.15
		s-7.23,16.15-16.15,16.15c-8.25,0-15.05-6.19-16.02-14.18c-1.21,4.34-1.85,8.89-1.85,13.59c0,29.71,25.73,53.8,57.47,53.8
		s57.47-24.09,57.47-53.8C197.04,56.64,171.32,32.56,139.58,32.56z M178.46,117.12c-5.43,0-9.83-4.4-9.83-9.83
		c0-5.43,4.4-9.83,9.83-9.83c5.43,0,9.83,4.4,9.83,9.83C188.29,112.72,183.89,117.12,178.46,117.12z"/>
</g>
<g id="Text">
	<rect x="64.23" y="193.7" class="st1" width="172.07" height="47.11"/>
	<text transform="matrix(1 0 0 1 64.2287 232.3619)" class="st0 st2 st3">H2VL</text>
</g>
</svg>
